<svg xmlns="http://www.w3.org/2000/svg" width="1600" height="620" viewBox="0 0 1600 620">
<defs><filter id="shadow"><feDropShadow dx="0" dy="8" stdDeviation="10" flood-opacity="0.16"/></filter><marker id="arrow" markerWidth="12" markerHeight="12" refX="10" refY="6" orient="auto"><path d="M0,0 L12,6 L0,12 z" fill="#53657d"/></marker></defs>
<rect width="1600" height="620" rx="32" fill="#eef3f9"/>
<text x="800" y="70" text-anchor="middle" font-family="Arial" font-size="36" font-weight="700" fill="#14213d">Arquitetura integrada do processo de IRPF</text>
<text x="800" y="108" text-anchor="middle" font-family="Arial" font-size="17" fill="#5f6b7a">Da entrada documental ao envio automático das solicitações</text>
<g filter="url(#shadow)" fill="#fff"><rect x="55" y="235" width="210" height="145" rx="22"/><rect x="315" y="235" width="210" height="145" rx="22"/><rect x="575" y="235" width="210" height="145" rx="22"/><rect x="835" y="205" width="235" height="205" rx="22"/><rect x="1120" y="235" width="210" height="145" rx="22"/><rect x="1380" y="235" width="165" height="145" rx="22"/></g>
<g font-family="Arial" text-anchor="middle">
<text x="160" y="282" font-size="25" font-weight="700" fill="#f4a300">Google Drive</text><text x="160" y="318" font-size="17" fill="#596579">Entrada da declaração</text><text x="160" y="344" font-size="15" fill="#7b8798">Arquivos e organização</text>
<text x="420" y="282" font-size="25" font-weight="700" fill="#6d00cc">Make</text><text x="420" y="318" font-size="17" fill="#596579">Processamento do IRPF</text><text x="420" y="344" font-size="15" fill="#7b8798">Regras e orquestração</text>
<text x="680" y="282" font-size="25" font-weight="700" fill="#4285f4">Gemini</text><text x="680" y="318" font-size="17" fill="#596579">Extração inteligente</text><text x="680" y="344" font-size="15" fill="#7b8798">Dados estruturados</text>
<text x="952" y="252" font-size="25" font-weight="700" fill="#1f9d68">Supabase</text><text x="952" y="286" font-size="17" fill="#596579">PostgreSQL</text><text x="952" y="328" font-size="15" fill="#7b8798">Pessoas • Exercícios</text><text x="952" y="354" font-size="15" fill="#7b8798">Uploads • Documentos</text><text x="952" y="380" font-size="15" fill="#7b8798">Pendências • Comunicações</text>
<text x="1225" y="282" font-size="25" font-weight="700" fill="#412991">OpenAI</text><text x="1225" y="318" font-size="17" fill="#596579">Redação do e-mail</text><text x="1225" y="344" font-size="15" fill="#7b8798">Mensagem personalizada</text>
<text x="1462" y="282" font-size="25" font-weight="700" fill="#d64b3f">Gmail</text><text x="1462" y="318" font-size="17" fill="#596579">Envio</text><text x="1462" y="344" font-size="15" fill="#7b8798">Cliente</text></g>
<g stroke="#53657d" stroke-width="4" fill="none" marker-end="url(#arrow)"><line x1="265" y1="307" x2="315" y2="307"/><line x1="525" y1="307" x2="575" y2="307"/><line x1="785" y1="307" x2="835" y2="307"/><line x1="1070" y1="307" x2="1120" y2="307"/><line x1="1330" y1="307" x2="1380" y2="307"/></g>
<rect x="470" y="470" width="660" height="78" rx="18" fill="#dfe9f5"/><text x="800" y="503" text-anchor="middle" font-family="Arial" font-size="18" font-weight="700" fill="#26374d">Integração entre duas automações independentes</text><text x="800" y="531" text-anchor="middle" font-family="Arial" font-size="15" fill="#596579">O banco conecta o processamento documental à cobrança automática</text>
</svg>